<svg id="mySvg" width="800" height="500" xmlns="http://www.w3.org/2000/svg"><g transform="translate(80,80)" class="main_canvas"><g class="axis" transform="translate(0,320)" fill="none" font-size="10" font-family="sans-serif" text-anchor="middle"><g class="tick" opacity="1" transform="translate(62.5,0)"><text fill="currentColor" y="9" dy="0.71em" style="font-family: Oxygen; fill: #253039;">1995</text></g><g class="tick" opacity="1" transform="translate(165.5,0)"><text fill="currentColor" y="9" dy="0.71em" style="font-family: Oxygen; fill: #253039;">1996</text></g><g class="tick" opacity="1" transform="translate(268.5,0)"><text fill="currentColor" y="9" dy="0.71em" style="font-family: Oxygen; fill: #253039;">1997</text></g><g class="tick" opacity="1" transform="translate(371.5,0)"><text fill="currentColor" y="9" dy="0.71em" style="font-family: Oxygen; fill: #253039;">1998</text></g><g class="tick" opacity="1" transform="translate(474.5,0)"><text fill="currentColor" y="9" dy="0.71em" style="font-family: Oxygen; fill: #253039;">1999</text></g><g class="tick" opacity="1" transform="translate(577.5,0)"><text fill="currentColor" y="9" dy="0.71em" style="font-family: Oxygen; fill: #253039;">2000</text></g></g><g class="axis" fill="none" font-size="10" font-family="sans-serif" text-anchor="end"><g class="tick" opacity="1" transform="translate(0,320.5)"><line stroke="currentColor" x2="640"></line><text fill="currentColor" x="-3" dy="0.32em" style="font-family: Oxygen; fill: #253039;">0</text></g><g class="tick" opacity="1" transform="translate(0,273.5)"><line stroke="currentColor" x2="640" style="stroke-opacity: 0.3;"></line><text fill="currentColor" x="-3" dy="0.32em" style="font-family: Oxygen; fill: #253039;">10</text></g><g class="tick" opacity="1" transform="translate(0,226.5)"><line stroke="currentColor" x2="640" style="stroke-opacity: 0.3;"></line><text fill="currentColor" x="-3" dy="0.32em" style="font-family: Oxygen; fill: #253039;">20</text></g><g class="tick" opacity="1" transform="translate(0,179.5)"><line stroke="currentColor" x2="640" style="stroke-opacity: 0.3;"></line><text fill="currentColor" x="-3" dy="0.32em" style="font-family: Oxygen; fill: #253039;">30</text></g><g class="tick" opacity="1" transform="translate(0,132.5)"><line stroke="currentColor" x2="640" style="stroke-opacity: 0.3;"></line><text fill="currentColor" x="-3" dy="0.32em" style="font-family: Oxygen; fill: #253039;">40</text></g><g class="tick" opacity="1" transform="translate(0,85.5)"><line stroke="currentColor" x2="640" style="stroke-opacity: 0.3;"></line><text fill="currentColor" x="-3" dy="0.32em" style="font-family: Oxygen; fill: #253039;">50</text></g><g class="tick" opacity="1" transform="translate(0,38.5)"><line stroke="currentColor" x2="640" style="stroke-opacity: 0.3;"></line><text fill="currentColor" x="-3" dy="0.32em" style="font-family: Oxygen; fill: #253039;">60</text></g></g><text transform="translate(-35, 200) rotate(-90)" text-anchor="start" font-size="20px">Million</text><g class="bars"><rect fill="#3e6591" id="0" class="element_0 elements ordinary" x="24" y="198" height="122" width="23" rx="2" ry="2"></rect><rect fill="#3e6591" id="1" class="element_1 elements ordinary" x="127" y="155" height="165" width="23" rx="2" ry="2"></rect><rect fill="#3e6591" id="2" class="element_2 elements ordinary" x="230" y="99" height="221" width="23" rx="2" ry="2"></rect><rect fill="#3e6591" id="3" class="element_3 elements ordinary" x="333" y="146" height="174" width="23" rx="2" ry="2"></rect><rect fill="#3e6591" id="4" class="element_4 elements ordinary" x="436" y="169" height="151" width="23" rx="2" ry="2"></rect><rect fill="#3e6591" id="5" class="element_5 elements ordinary" x="539" y="113" height="207" width="23" rx="2" ry="2"></rect><rect fill="#eb7d22" id="6" class="element_6 elements ordinary" x="51" y="155" height="165" width="23" rx="2" ry="2"></rect><rect fill="#eb7d22" id="7" class="element_7 elements ordinary" x="154" y="132" height="188" width="23" rx="2" ry="2"></rect><rect fill="#eb7d22" id="8" class="element_8 elements ordinary" x="257" y="118" height="202" width="23" rx="2" ry="2"></rect><rect fill="#eb7d22" id="9" class="element_9 elements ordinary" x="360" y="99" height="221" width="23" rx="2" ry="2"></rect><rect fill="#eb7d22" id="10" class="element_10 elements ordinary" x="463" y="85" height="235" width="23" rx="2" ry="2"></rect><rect fill="#eb7d22" id="11" class="element_11 elements ordinary" x="566" y="0" height="320" width="23" rx="2" ry="2"></rect><rect fill="#d73f45" id="12" class="element_12 elements ordinary" x="78" y="245" height="75" width="23" rx="2" ry="2"></rect><rect fill="#d73f45" id="13" class="element_13 elements ordinary" x="181" y="198" height="122" width="23" rx="2" ry="2"></rect><rect fill="#d73f45" id="14" class="element_14 elements ordinary" x="284" y="136" height="184" width="23" rx="2" ry="2"></rect><rect fill="#d73f45" id="15" class="element_15 elements ordinary" x="387" y="122" height="198" width="23" rx="2" ry="2"></rect><rect fill="#d73f45" id="16" class="element_16 elements ordinary" x="490" y="122" height="198" width="23" rx="2" ry="2"></rect><rect fill="#d73f45" id="17" class="element_17 elements ordinary" x="593" y="122" height="198" width="23" rx="2" ry="2"></rect></g><g transform="translate(640,0)" class="legend-wrap"><g transform="translate(0,0)"><rect width="17.28" height="17.28" fill="#3e6591" id="color-0" color-data="#3e6591" custom-id="0" data-toggle="popover" data-container="body" data-placement="right" onclick="addColorPicker(this)"></rect><text x="20.16" y="14.399999999999999" text-anchor="start" font-size="14.399999999999999">Kennedy</text></g><g transform="translate(0,19.2)"><rect width="17.28" height="17.28" fill="#eb7d22" id="color-1" color-data="#eb7d22" custom-id="1" data-toggle="popover" data-container="body" data-placement="right" onclick="addColorPicker(this)"></rect><text x="20.16" y="14.399999999999999" text-anchor="start" font-size="14.399999999999999">LaGuardia</text></g><g transform="translate(0,38.4)"><rect width="17.28" height="17.28" fill="#d73f45" id="color-2" color-data="#d73f45" custom-id="2" data-toggle="popover" data-container="body" data-placement="right" onclick="addColorPicker(this)"></rect><text x="20.16" y="14.399999999999999" text-anchor="start" font-size="14.399999999999999">Newark</text></g></g><text class="title" text-anchor="middle" font-size="38.4" x="320" y="-51.2" style="font-family: Oxygen; font-weight: bold; fill: #253039;">AIRPORT VISITORS</text></g></svg>