<svg id="mySvg" viewBox="0 0 581.2287479831438 400" preserveAspectRatio="xMidYMid meet" width="581.2287479831438" height="500" xmlns="http://www.w3.org/2000/svg"><g transform="translate(80,80)" class="main_canvas"><g transform="translate(0,320)" fill="none" font-size="10" font-family="sans-serif" text-anchor="middle"><path class="domain" stroke="currentColor" d="M0.5,6V0.5H465.482998386515V6"></path><g class="tick" opacity="1" transform="translate(0.5,0)"><line stroke="currentColor" y2="6"></line><text fill="currentColor" y="9" dy="0.71em">0.0</text></g><g class="tick" opacity="1" transform="translate(116.74574959662876,0)"><line stroke="currentColor" y2="6"></line><text fill="currentColor" y="9" dy="0.71em">0.5</text></g><g class="tick" opacity="1" transform="translate(232.9914991932575,0)"><line stroke="currentColor" y2="6"></line><text fill="currentColor" y="9" dy="0.71em">1.0</text></g><g class="tick" opacity="1" transform="translate(349.2372487898863,0)"><line stroke="currentColor" y2="6"></line><text fill="currentColor" y="9" dy="0.71em">1.5</text></g><g class="tick" opacity="1" transform="translate(465.482998386515,0)"><line stroke="currentColor" y2="6"></line><text fill="currentColor" y="9" dy="0.71em">2.0</text></g></g><text x="232.4914991932575" text-anchor="middle" font-size="23.249149919325752">The Price</text><g fill="none" font-size="10" font-family="sans-serif" text-anchor="end"><path class="domain" stroke="currentColor" d="M-6,320.5H0.5V0.5H-6"></path><g class="tick" opacity="1" transform="translate(0,320.5)"><line stroke="currentColor" x2="-6"></line><text fill="currentColor" x="-9" dy="0.32em">0</text></g><g class="tick" opacity="1" transform="translate(0,288.3714859437751)"><line stroke="currentColor" x2="-6"></line><text fill="currentColor" x="-9" dy="0.32em">10</text></g><g class="tick" opacity="1" transform="translate(0,256.2429718875502)"><line stroke="currentColor" x2="-6"></line><text fill="currentColor" x="-9" dy="0.32em">20</text></g><g class="tick" opacity="1" transform="translate(0,224.1144578313253)"><line stroke="currentColor" x2="-6"></line><text fill="currentColor" x="-9" dy="0.32em">30</text></g><g class="tick" opacity="1" transform="translate(0,191.9859437751004)"><line stroke="currentColor" x2="-6"></line><text fill="currentColor" x="-9" dy="0.32em">40</text></g><g class="tick" opacity="1" transform="translate(0,159.8574297188755)"><line stroke="currentColor" x2="-6"></line><text fill="currentColor" x="-9" dy="0.32em">50</text></g><g class="tick" opacity="1" transform="translate(0,127.72891566265059)"><line stroke="currentColor" x2="-6"></line><text fill="currentColor" x="-9" dy="0.32em">60</text></g><g class="tick" opacity="1" transform="translate(0,95.60040160642568)"><line stroke="currentColor" x2="-6"></line><text fill="currentColor" x="-9" dy="0.32em">70</text></g><g class="tick" opacity="1" transform="translate(0,63.471887550200805)"><line stroke="currentColor" x2="-6"></line><text fill="currentColor" x="-9" dy="0.32em">80</text></g><g class="tick" opacity="1" transform="translate(0,31.343373493975896)"><line stroke="currentColor" x2="-6"></line><text fill="currentColor" x="-9" dy="0.32em">90</text></g></g><g id="content"><path d="M0,210.76305220883535L232.4914991932575,125.61218219071765L464.982998386515,53.33333333333332" stroke="#e78ac3" transform="translate(100, 20)" style="stroke-width: 4; fill: none;"></path><path d="M0,114.33651979351421L232.4914991932575,133.96057583167877L464.982998386515,54.56002498101807" stroke="#b3b3b3" style="stroke-width: 4; fill: none;"></path><path d="M0,197.91164658634534L232.4914991932575,230.0401606425703L464.982998386515,230.0401606425703" stroke="#a6d854" style="stroke-width: 4; fill: none;"></path></g><g transform="translate(464.982998386515,0)" class="legend-wrap"><g transform="translate(0,0)"><line x1="0" x2="17.28" y1="8.64" y2="8.64" stroke="#e78ac3" id="color-0" stroke-width="4"></line><text x="20.16" y="14.399999999999999" text-anchor="start" font-size="14.399999999999999">item0</text></g><g transform="translate(0,19.2)"><line x1="0" x2="17.28" y1="8.64" y2="8.64" stroke="#b3b3b3" id="color-1" stroke-width="4"></line><text x="20.16" y="14.399999999999999" text-anchor="start" font-size="14.399999999999999">item1</text></g><g transform="translate(0,38.4)"><line x1="0" x2="17.28" y1="8.64" y2="8.64" stroke="#a6d854" id="color-2" stroke-width="4"></line><text x="20.16" y="14.399999999999999" text-anchor="start" font-size="14.399999999999999">item2</text></g></g></g></svg>